<svg xmlns="http://www.w3.org/2000/svg" width="50" height="50" viewBox="0 0 50 50"><defs><style>.a{fill:#c9c9c9}</style></defs><path class="a" d="M11.364 37.433a1.172 1.172 0 01-1.136 1.2 1.172 1.172 0 01-1.136-1.2v-3.278a1.172 1.172 0 011.136-1.2 1.172 1.172 0 011.136 1.2zm29.545 0a1.172 1.172 0 01-1.136 1.2 1.172 1.172 0 01-1.136-1.2v-3.278a1.172 1.172 0 011.136-1.2 1.172 1.172 0 011.136 1.2zm-21.59 11.364a1.172 1.172 0 01-1.136 1.2 1.171 1.171 0 01-1.136-1.2v-3.278a1.171 1.171 0 011.136-1.2 1.172 1.172 0 011.136 1.2zm13.636 0a1.172 1.172 0 01-1.137 1.2 1.172 1.172 0 01-1.136-1.2v-3.278a1.172 1.172 0 011.136-1.2 1.172 1.172 0 011.137 1.2zm-6.818-9.091a1.172 1.172 0 01-1.136 1.2 1.171 1.171 0 01-1.136-1.2v-3.278a1.171 1.171 0 011.136-1.2 1.172 1.172 0 011.136 1.2z"/><path d="M43.465 27.699c-.106 0-.21 0-.315-.009H32.172c-.117 0-.235.009-.354.009H10.227A9.528 9.528 0 01.71 18.182c0-.163 0-.325.012-.486l.016-.214c.006-.089.012-.177.02-.265 0-.038.025-.2.025-.2l.009-.072c.008-.067.015-.134.025-.2l.037-.211.014-.078.031-.176c.011-.059.02-.093.031-.139l.034-.151c.012-.055.024-.111.038-.165l.041-.148.042-.147.043-.152c.015-.052.035-.107.053-.161l.047-.139c.015-.045.03-.091.047-.136.022-.061.046-.121.07-.182 0 0 .08-.205.1-.244.029-.07.06-.137.09-.2 0 0 .078-.175.1-.213.032-.068.067-.135.1-.2l.1-.2c.038-.072.079-.142.119-.212l.1-.18c.05-.084.1-.166.155-.248l.087-.135c.055-.084.114-.166.172-.248l.083-.117a8.76 8.76 0 01.193-.252l.082-.1c.07-.086.141-.169.212-.251l.077-.089c.077-.086.153-.168.231-.249l.075-.079a9.66 9.66 0 01.25-.245l.071-.067c.088-.082.178-.162.269-.241l.062-.054c.1-.083.194-.16.291-.236l.059-.047c.1-.077.2-.153.307-.226l.051-.036c.11-.077.219-.149.329-.22l.055-.035c.1-.066.219-.134.335-.2l.025-.014c.135-.077.255-.141.377-.2l.034-.018q.187-.095.379-.181l.029-.013q.194-.087.394-.166l.028-.011c.129-.051.266-.1.4-.147.157-.053.3-.1.441-.137l.04-.012c.117-.033.262-.07.409-.1l.039-.009-.028.007a10.65 10.65 0 01.892-.161l.047-.007a10.195 10.195 0 01.916-.071h.7v-.63a9.429 9.429 0 01.8-2.174 8.9 8.9 0 01.188-.346l.019-.034c.054-.093.115-.2.178-.3l.012-.019a9.59 9.59 0 01.933-1.247c.089-.1.164-.181.24-.261l.064-.068c.069-.071.142-.143.215-.214l.086-.082.215-.2.093-.08c.074-.064.149-.128.225-.19l.081-.064a9.552 9.552 0 01.777-.556l.143-.091c.063-.039.128-.077.194-.115l.178-.1.2-.107.188-.1a8.429 8.429 0 01.398-.186l.187-.082c.078-.032.158-.063.238-.093l.167-.064c.129-.047.263-.093.4-.135l.112-.033c.1-.03.206-.061.312-.088l.162-.039c.09-.022.18-.043.271-.063L18.074.9c.088-.017.177-.033.265-.047l.182-.028c.09-.013.182-.024.274-.035l.172-.019c.1-.01.2-.017.307-.023l.148-.01c.153-.007.306-.012.46-.012s.309 0 .462.012l.153.01c.1.007.2.013.3.023l.179.02c.092.011.183.022.274.035l.185.029.259.046.185.038c.086.018.171.038.255.059l.181.045c.086.023.171.048.257.073l.168.049a8.366 8.366 0 01.567.2l.046.018c.064.024.127.049.19.075s.105.046.158.07l.088.039c.048.021.1.042.143.065.074.035.146.071.218.107l.162.083.225.123.14.08c.079.046.157.093.233.141l.11.07c.085.055.169.11.252.166l.045.032a9.564 9.564 0 011.473 1.269l.026.027a9.507 9.507 0 012.571 6.083l.066 1.469 1.11-.965a6.62 6.62 0 013.692-1.6 6.805 6.805 0 011.367 0 6.653 6.653 0 015.992 6.642v.092l-.01.857.844-.149a5.857 5.857 0 011.015-.09 5.83 5.83 0 015.824 5.824 5.843 5.843 0 01-5.386 5.805l-.143.011c-.095-.013-.194-.01-.293-.01z" fill="#f2f2f2"/><path class="a" d="M19.886 1.42c.133 0 .273 0 .43.011h.058l.08.005c.093.006.187.012.282.021l.114.013.052.006c.085.009.169.02.248.031l.175.028c.08.013.16.028.236.042l.177.036c.078.017.156.035.232.054l.051.012.116.028c.081.022.16.045.246.07l.056.016.095.028c.1.032.2.066.3.1.074.026.148.055.22.082l.047.018.17.067c.048.02.1.041.143.063l.048.022.043.019.13.059c.067.032.134.065.2.1l.149.076.206.112.134.077a7.5 7.5 0 01.213.128l.071.045.032.021c.078.05.156.1.228.15l.013.009.037.026a8.871 8.871 0 011.36 1.172l.029.03a8.793 8.793 0 012.375 5.623l.131 2.938 2.22-1.93a5.916 5.916 0 013.3-1.432c.2-.02.41-.031.613-.031a6.111 6.111 0 01.612.031 5.943 5.943 0 015.354 5.927v.092l-.021 1.714 1.688-.3a5.17 5.17 0 01.892-.079 5.12 5.12 0 015.114 5.114 5.13 5.13 0 01-4.729 5.1l-.1.009h-.007c-.092 0-.185.008-.278.008s-.186 0-.278-.008H32.148c-.108 0-.216.009-.325.009H10.232a8.817 8.817 0 01-8.806-8.807c0-.149 0-.3.011-.45v-.063l.007-.094v-.047c.005-.08.01-.161.018-.24 0-.03.007-.06.011-.09l.012-.094.009-.075.022-.176.019-.109.016-.088.014-.08.027-.152c.009-.052.018-.08.027-.12l.02-.084.016-.074c.011-.048.021-.1.034-.146l.035-.125.023-.08.021-.074c.012-.044.024-.089.038-.133l.047-.141.024-.071.025-.074.039-.117c.02-.055.042-.109.063-.163l.021-.054.03-.078.039-.1c.026-.062.054-.124.082-.185l.018-.039.028-.064.044-.1.092-.185.02-.038.036-.071.042-.081c.035-.066.072-.13.109-.194l.019-.032.034-.061.045-.077c.046-.077.094-.152.145-.231l.03-.047.047-.074c.052-.078.106-.154.158-.228l.041-.058.04-.055c.057-.078.117-.154.177-.231l.035-.045.041-.052c.064-.078.129-.155.193-.228l.038-.044.038-.043c.069-.078.14-.153.212-.229l.036-.038.032-.034c.076-.078.154-.153.229-.225l.04-.038.029-.028c.082-.076.165-.15.245-.219l.036-.032.029-.025c.087-.074.176-.146.271-.22l.022-.018.026-.021a9.96 9.96 0 01.285-.21l.013-.009h.005l.031-.022c.1-.069.2-.136.3-.2l.051-.033c.1-.065.208-.128.319-.191l.033-.019c.109-.062.221-.122.333-.179h.014l.018-.009c.116-.059.234-.115.362-.172l.015-.007c.115-.051.234-.1.356-.15l.027-.011c.123-.048.25-.094.379-.138l.021-.007c.126-.042.253-.082.376-.117l.036-.01h.007c.12-.034.241-.065.361-.093l.037-.008.02-.005c.117-.027.239-.051.361-.074h.032c.129-.023.26-.044.391-.061h.024l.033-.005a9.2 9.2 0 01.829-.066h1.4v-1.27a8.727 8.727 0 01.723-1.932v-.017q.078-.148.16-.294l.019-.034c.054-.094.11-.187.167-.279l.01-.017a8.9 8.9 0 01.864-1.154l.017-.019c.066-.074.134-.147.2-.219l.029-.031.029-.031c.066-.067.132-.134.2-.2l.081-.078c.066-.062.133-.124.2-.184l.053-.046.032-.028c.07-.06.139-.12.207-.175l.03-.023.049-.038c.228-.181.47-.354.716-.512l.06-.039.073-.047c.059-.036.12-.072.188-.111l.158-.091.183-.1.177-.09.179-.087.188-.085.013-.006.156-.068c.073-.03.148-.059.223-.087l.076-.03.073-.028c.132-.048.254-.089.377-.128l.026-.007.072-.02c.1-.029.193-.057.293-.083l.089-.022.057-.014c.084-.02.168-.041.25-.058l.165-.033c.081-.015.163-.03.248-.044l.165-.025c.085-.012.17-.023.252-.032l.05-.005.116-.013c.093-.009.187-.015.28-.021l.075-.005h.064c.154-.007.293-.011.426-.011m0-1.42c-.165 0-.33 0-.493.013l-.16.011c-.11.007-.219.014-.328.025l-.186.02c-.1.011-.2.024-.3.038l-.193.03c-.1.015-.191.033-.287.051l-.189.038c-.1.021-.194.043-.29.067l-.175.043a5.18 5.18 0 00-.337.1l-.119.035c-.146.045-.29.095-.433.146a9.078 9.078 0 00-.175.068l-.257.1a8.646 8.646 0 00-.2.087l-.222.1a8.194 8.194 0 00-.208.1l-.2.1c-.065.032-.142.075-.212.114s-.123.07-.184.106-.146.085-.217.129c-.052.032-.1.065-.153.1q-.432.278-.835.6l-.088.069-.242.2-.1.086c-.079.07-.156.141-.233.214l-.09.086a10.19 10.19 0 00-.233.232l-.068.071a9.961 9.961 0 00-.242.261l-.016.019a10.26 10.26 0 00-1 1.34q-.109.173-.21.351l-.014.024q-.1.177-.195.359l-.007.013a10.152 10.152 0 00-.882 2.419q-.253.008-.5.028h-.01q-.249.02-.5.052h-.01q-.245.032-.487.076h-.011c-.16.029-.32.062-.478.1h-.013q-.236.055-.467.12h-.016q-.229.065-.454.141l-.02.007q-.223.075-.44.16l-.025.01q-.214.084-.424.178l-.03.014q-.206.093-.407.194l-.036.019q-.2.1-.389.209l-.043.025q-.188.107-.37.222l-.05.032q-.178.114-.351.234l-.056.04c-.112.079-.222.16-.331.244l-.063.05c-.1.082-.208.165-.31.252l-.07.06q-.147.127-.289.258l-.076.073q-.136.129-.267.262l-.081.085c-.083.087-.166.176-.247.266a2.791 2.791 0 00-.085.1 11.48 11.48 0 00-.227.268l-.089.113c-.07.088-.139.178-.206.268l-.091.128c-.063.089-.126.177-.186.268-.031.047-.062.1-.092.144a9.124 9.124 0 00-.167.266l-.091.158c-.051.088-.1.175-.149.265l-.089.173c-.044.087-.089.174-.131.262-.03.062-.057.126-.086.19a7.466 7.466 0 00-.114.258c-.028.067-.054.136-.081.2l-.1.254c-.033.086-.05.148-.075.222s-.056.164-.082.248-.046.159-.068.239-.047.16-.067.241-.04.17-.059.255-.037.157-.053.236-.033.18-.048.271-.029.151-.04.228c-.014.1-.025.195-.037.292-.008.072-.02.143-.027.215-.011.111-.018.223-.025.334 0 .06-.01.12-.013.18q-.013.259-.013.521a10.227 10.227 0 0010.227 10.228h21.591c.129 0 .256 0 .384-.01h10.912c.117.006.234.01.352.01s.236 0 .352-.01h.138v-.01A6.533 6.533 0 0050 21.875a6.534 6.534 0 00-6.534-6.534 6.566 6.566 0 00-1.139.1v-.1a7.387 7.387 0 00-6.631-7.348 7.546 7.546 0 00-.755-.038 7.533 7.533 0 00-.755.038A7.352 7.352 0 0030.1 9.765a10.187 10.187 0 00-2.789-6.564 10.244 10.244 0 00-1.579-1.361l-.053-.038a9.67 9.67 0 00-.27-.178l-.119-.076q-.124-.077-.25-.151l-.151-.087q-.119-.067-.24-.131a5.747 5.747 0 00-.175-.089 7.156 7.156 0 00-.433-.204l-.222-.1c-.075-.034-.168-.067-.253-.1s-.171-.065-.257-.1a10.39 10.39 0 00-.352-.119c-.06-.019-.12-.036-.18-.053-.092-.027-.185-.055-.278-.079l-.195-.048a13.427 13.427 0 00-.273-.063l-.2-.04a12.396 12.396 0 00-.278-.05l-.2-.031c-.1-.014-.2-.026-.294-.037l-.19-.021c-.109-.011-.218-.018-.327-.025-.054 0-.108-.008-.163-.011a10.196 10.196 0 00-.5-.013z"/></svg>