<svg width="20" height="22" viewBox="0 0 20 22" fill="none" xmlns="http://www.w3.org/2000/svg">
<path d="M0.5 9.17084C0.5 7.93052 0.746417 6.74032 1.25222 5.60023C1.75802 4.46014 2.43242 3.49544 3.2884 2.68109C4.14437 1.86674 5.15597 1.21526 6.32321 0.726651C7.49044 0.238041 8.72253 0 10.0065 0C11.2904 0 12.5225 0.238041 13.7027 0.726651C14.87 1.21526 15.8816 1.86674 16.7246 2.68109C17.5676 3.49544 18.242 4.47267 18.7478 5.60023C19.2536 6.72779 19.5 7.91799 19.5 9.17084C19.5 11.2005 18.8775 13.0046 17.6324 14.6082C16.3874 16.1993 14.7792 17.2893 12.8208 17.8781V22H7.32184V17.9282C5.32457 17.3645 3.67747 16.2745 2.40648 14.6583C1.13549 13.0421 0.5 11.213 0.5 9.17084ZM2.58805 9.17084C2.58805 11.1128 3.31433 12.779 4.77986 14.1697C6.21945 15.5729 7.95734 16.2745 9.99352 16.2745C11.3294 16.2745 12.5744 15.9613 13.7027 15.3223C14.844 14.6834 15.7389 13.8189 16.4133 12.7289C17.0747 11.639 17.4119 10.4487 17.4119 9.15831C17.4119 8.19362 17.2174 7.27904 16.8283 6.38952C16.4392 5.5 15.9075 4.74829 15.2461 4.10934C14.5846 3.47039 13.7935 2.95672 12.8727 2.58087C11.9519 2.20501 11.0051 2.01708 10.0065 2.01708C9.00785 2.01708 8.06109 2.20501 7.14027 2.58087C6.21945 2.95672 5.4413 3.47039 4.77986 4.10934C4.11843 4.74829 3.58669 5.51253 3.19761 6.38952C2.78259 7.29157 2.58805 8.20615 2.58805 9.17084ZM3.34027 9.62187V8.71982H6.15461V9.62187H3.34027ZM4.75393 5.18679L5.42833 4.53531L7.39966 6.43964L6.72526 7.10364L4.75393 5.18679ZM8.03515 11.3633C8.03515 10.8371 8.22969 10.3861 8.6058 9.99772C8.98191 9.60934 9.44881 9.40888 9.98055 9.39635L13.5212 3.77107L14.3771 4.20957L11.7573 10.2608C11.9908 10.574 12.0945 10.9374 12.0945 11.3633C12.0945 11.9146 11.9 12.3781 11.498 12.754C11.0959 13.1298 10.616 13.3178 10.0454 13.3178C9.48771 13.3178 9.00785 13.1298 8.61877 12.754C8.22969 12.3781 8.03515 11.9146 8.03515 11.3633ZM9.73413 5.51253V2.80638H10.629V5.52506H9.73413V5.51253ZM13.5471 9.60934V8.68223H16.3614V9.60934H13.5471Z" fill="white"/>
</svg>
